{"title":"Wiz Khalifa - ft. Snoop Dogg_ Juicy J &amp; T-PainBlack And Yellow [","uid":6089877,"size":29395952,"categoryP":"video","categoryS":"music_videos","magnet":"?xt=urn:btih:a79bbb9f36527b190a05120fabc323d1e49033b9&amp;dn=Wiz+Khalifa+-+ft.+Snoop+Dogg_+Juicy+J+%26+T-PainBlack+And+Yellow+%5B&amp;tr=udp%3A%2F%2Ftracker.openbittorrent.com%3A80&amp;tr=udp%3A%2F%2Fopen.demonii.com%3A1337&amp;tr=udp%3A%2F%2Ftracker.coppersurfer.tk%3A6969&amp;tr=udp%3A%2F%2Fexodus.desync.com%3A6969","seeders":1,"leechers":0,"uploader":"kamikaz28","files":2,"time":1294504145,"description":"Wiz Khalifa - ft. Snoop Dogg_ Juicy J &amp; T-PainBlack And Yellow [G-Mix]\n\nFormat                           : AVI\nFormat/Info                      : Audio Video Interleave\nFile size                        : 28.0 MiB\nDuration                         : 4mn 49s\nOverall bit rate                 : 813 Kbps\nWriting application              : Lavf51.7.0\n\nVideo\nID                               : 0\nFormat                           : MPEG-4 Visual\nFormat profile                   : Simple@L1\nFormat settings, BVOP            : No\nFormat settings, QPel            : No\nFormat settings, GMC             : No warppoints\nFormat settings, Matrix          : Default (H.263)\nCodec ID                         : DIVX\nCodec ID/Info                    : Project Mayo\nCodec ID/Hint                    : DivX 4\nDuration                         : 4mn 48s\nBit rate                         : 674 Kbps\nWidth                            : 528 pixels\nHeight                           : 304 pixels\nDisplay aspect ratio             : 16:9\nFrame rate                       : 25.000 fps\nColor space                      : YUV\nChroma subsampling               : 4:2:0\nBit depth                        : 8 bits\nScan type                        : Progressive\nCompression mode                 : Lossy\nBits/(Pixel*Frame)               : 0.168\nStream size                      : 23.2 MiB (83%)\nWriting library                  : Lavc51.28.0\n\nAudio\nID                               : 1\nFormat                           : MPEG Audio\nFormat version                   : Version 1\nFormat profile                   : Layer 3\nMode                             : Joint stereo\nMode extension                   : MS Stereo\nCodec ID                         : 55\nCodec ID/Hint                    : MP3\nDuration                         : 4mn 49s\nBit rate mode                    : Constant\nBit rate                         : 128 Kbps\nChannel(s)                       : 2 channels\nSampling rate                    : 44.1 KHz\nCompression mode                 : Lossy\nStream size                      : 4.41 MiB (16%)\nAlignment                        : Aligned on interleaves\nInterleave, duration             : 26 ms (0.65 video frame)\nInterleave, preload duration     : 522 ms\nWriting library                  : LAME3.96\n\n","torrent":{"xt":"urn:btih:a79bbb9f36527b190a05120fabc323d1e49033b9","amp;dn":"Wiz+Khalifa+-+ft.+Snoop+Dogg_+Juicy+J+%26+T-PainBlack+And+Yellow+%5B","amp;tr":["udp%3A%2F%2Ftracker.openbittorrent.com%3A80","udp%3A%2F%2Fopen.demonii.com%3A1337","udp%3A%2F%2Ftracker.coppersurfer.tk%3A6969","udp%3A%2F%2Fexodus.desync.com%3A6969"],"infoHash":"a79bbb9f36527b190a05120fabc323d1e49033b9","infoHashBuffer":{"type":"Buffer","data":[167,155,187,159,54,82,123,25,10,5,18,15,171,195,35,209,228,144,51,185]},"announce":[],"urlList":[]}}